# xmcd
#
# Track frame offsets:
#	150
#	17536
#	33363
#	51052
#	66658
#	83481
#	99574
#	117370
#	132644
#	144802
#	162930
#
# Disc length: 2433 seconds
#
# Revision: 0
# Processed by: cddbd v1.5.2PL0 Copyright (c) Steve Scherf et al.
# Submitted via: audiograbber 1.83.01
#
DISCID=8e097f0b
DTITLE=Sons Of The Soil - The Ground You Walk On
DYEAR=2005
DGENRE=Country
TTITLE0=Done Good Played Hard
TTITLE1=Never Mess With A Queenslander
TTITLE2=The Ground You Walk On
TTITLE3=She's My Country
TTITLE4=Till It Rains In Barble Bar
TTITLE5=Pat Malone
TTITLE6=Gully Raker
TTITLE7=Play That Country Music (Mr City DJ)
TTITLE8=Surf and Turf
TTITLE9=Happy On The Farm
TTITLE10=Grandpa Rides A Harley Davidson
EXTD=
EXTT0=
EXTT1=
EXTT2=
EXTT3=
EXTT4=
EXTT5=
EXTT6=
EXTT7=
EXTT8=
EXTT9=
EXTT10=
PLAYORDER=
